The Holding (2011) DvDSCR DD2.0 NL Subs EE-Rel.NL
.
[IMG]http://img27.imageshack.us/img27/1082/71787.jpg[/IMG]
.
Verenigd Koninkrijk
Thriller
95 minuten

geregisseerd door Susan Jacobson
met Kierston Wareing, Vincent Regan en David Bradley

Cassie Naylor heeft een gruwelijk geheim. Acht maanden geleden doodde ze haar man toen ze ontdekte dat hij hun tienerdochter misbruikte. Nu ze de boerderij alleen runt samen met haar twee dochters dreigt ze financiÙel ten onder te gaan. Ze probeert er alles aan te doen om haar huis en haar gezin bij elkaar te houden. Op een dag arriveert er een charismatische vreemdeling op de boerderij die zich in het leven van Cassie praat. Maar naarmate de tijd verstrijkt wordt het duidelijk dat hij een gezin voor zichzelf wil...hij wil haar gezin.
. 
http://www.moviemeter.nl/film/71787
.
PLOT
.
A heart-pounding suspense thriller, set on an isolated farm in England\'s beautiful, rugged Peak District. 
. 
http://www.imdb.com/title/tt1582621/
.
INFO
.
SOURCE:..........: NoGRP@3pass to DvD5
Video:..........: NTSC
Audio:..........: DD2.0
Subs..........: Dutch By:Erik and Ed.
*************************************************************
Format                           : MPEG Video
Format version                   : Version 2
Format profile                   : Main@Main
Format settings, BVOP            : Yes
Format settings, Matrix          : Default
Format settings, GOP             : M=3, N=18
Duration                         : 1h 28mn
Bit rate mode                    : Constant
Bit rate                         : 6 628 Kbps
Width                            : 720 pixels
Height                           : 480 pixels
Display aspect ratio             : 16:9
Frame rate                       : 29.970 fps
Standard                         : NTSC
Color space                      : YUV
Chroma subsampling               : 4:2:0
Bit depth                        : 8 bits
Scan type                        : Progressive
Bits/(Pixel*Frame)               : 0.640
Stream size                      : 4.09 GiB (95%)
*************************************************************
Audio
ID                               : 128 (0x80)
Format                           : AC-3
Format/Info                      : Audio Coding 3
Mode extension                   : CM (complete main)
Duration                         : 1h 28mn
Bit rate mode                    : Constant
Bit rate                         : 224 Kbps
Channel(s)                       : 2 channels
Channel positions                : Front: L R
Sampling rate                    : 48.0 KHz
Bit depth                        : 16 bits
Stream size                      : 142 MiB (3%)
*************************************************************
Enjoy EE-Rel.NL
